<mxfile host="app.diagrams.net" modified="2023-07-20T12:36:40.161Z" agent="Mozilla/5.0 (Windows NT 10.0; Win64; x64) AppleWebKit/537.36 (KHTML, like Gecko) Chrome/114.0.0.0 Safari/537.36" version="21.6.3" etag="rHJTt_Dvk1dCtRiCZAJM" type="github">
  <diagram name="Страница 1" id="lc8wfbNfJ8p5G1PMLGlt">
    <mxGraphModel>
      <root>
        <mxCell id="0" />
        <mxCell id="1" parent="0" />
      </root>
    </mxGraphModel>
  </diagram>
</mxfile>
